<svg width="280" height="280" viewBox="0 0 280 280" fill="none" xmlns="http://www.w3.org/2000/svg">
  <rect width="280" height="280" rx="40" fill="#0F172A"/>
  <path d="M140 40L60 80v60c0 63 38.4 121.8 80 135 41.6-13.2 80-72 80-135V80L140 40z" fill="#1E293B"/>
  <path d="M140 50L70 85v55c0 55.2 33.6 106.8 70 118.5V50z" fill="#253347"/>
  <path d="M140 50l70 35v55c0 55.2-33.6 106.8-70 118.5V50z" fill="#1E293B"/>
  <circle cx="140" cy="120" r="24" fill="#22D3EE"/>
  <path d="M128 140l-8 52h40l-8-52" fill="#22D3EE" opacity="0.6"/>
  <circle cx="140" cy="120" r="8" fill="#0F172A" opacity="0.3"/>
</svg>
